<?xml version="1.0" encoding="utf-8"?>
<!-- Svg Vector Icons : http://www.onlinewebfonts.com/icon -->
<!DOCTYPE svg PUBLIC "-//W3C//DTD SVG 1.1//EN" "http://www.w3.org/Graphics/SVG/1.1/DTD/svg11.dtd">
<svg version="1.1" xmlns="http://www.w3.org/2000/svg" xmlns:xlink="http://www.w3.org/1999/xlink" x="0px" y="0px" viewBox="0 0 256 256" enable-background="new 0 0 256 256" xml:space="preserve">
<metadata> Svg Vector Icons : http://www.onlinewebfonts.com/icon </metadata>
<g><g><path stroke-width="18" fill-opacity="0" stroke="#fff"  d="M224.2,34c-1.9-1.9-4.5-3-7.2-3s-5.3,1.1-7.2,3c-3,3-3.8,7.5-2,11.4L161.3,101c-1.1-0.4-2.3-0.6-3.5-0.6c-2.4,0-4.7,0.8-6.5,2.4c-0.4-0.5-0.9-0.9-1.4-1.1l-39.6-19.8c-0.6-0.3-1.1-0.4-1.8-0.5c0.1-2.9-0.9-5.7-2.9-7.7c-1.9-1.9-4.5-3-7.2-3s-5.3,1.1-7.2,3c-2.8,2.8-3.7,6.9-2.4,10.6l-46.1,46.5c-1.2-0.5-2.5-0.7-3.7-0.7c-2.7,0-5.2,1.1-7.2,3c-3.9,3.9-3.9,10.4,0,14.3c1.9,1.9,4.5,3,7.2,3l0,0c2.7,0,5.3-1.1,7.2-3c2.6-2.6,3.6-6.5,2.6-10l46.5-46.9c1,0.3,2.1,0.5,3.2,0.5c2.4,0,4.7-0.8,6.5-2.4c0.4,0.5,0.9,0.9,1.4,1.1l39.6,19.8c0.6,0.3,1.1,0.4,1.8,0.5c-0.1,2.9,0.9,5.7,2.9,7.7c1.9,1.9,4.5,3,7.2,3s5.3-1.1,7.2-3c2.7-2.7,3.6-6.6,2.5-10.2L214.7,51c0.8,0.2,1.6,0.3,2.4,0.3c2.7,0,5.3-1.1,7.2-3c1.9-1.9,3-4.5,3-7.2C227.2,38.5,226.1,36,224.2,34L224.2,34z M241.8,215.2h-9.4V80.8c0-0.3-0.2-0.5-0.5-0.5h-29.7c-0.3,0-0.5,0.2-0.5,0.5v134.4H173v-65.1c0-0.3-0.2-0.5-0.5-0.5h-29.7c-0.3,0-0.5,0.2-0.5,0.5v65.1h-28.8v-94.8c0-0.3-0.2-0.5-0.5-0.5H83.5c-0.3,0-0.5,0.2-0.5,0.5v94.8H54.2v-35.4c0-0.3-0.2-0.5-0.5-0.5H24.1c-0.3,0-0.5,0.2-0.5,0.5v35.4h-9.4c-2.3,0-4.2,3.3-4.2,5.6c0,2.3,1.9,4.2,4.2,4.2h227.6c2.3,0,4.2-1.9,4.2-4.2C246,218.4,244.1,215.2,241.8,215.2L241.8,215.2z"/></g></g>
</svg>